<svg xmlns="http://www.w3.org/2000/svg" viewBox="0 0 500 500"><g id="freepik--Floor--inject-2"><ellipse id="freepik--floor--inject-2" cx="250.56" cy="365.12" rx="240.31" ry="124.36" style="fill:#f5f5f5"></ellipse></g><g id="freepik--Clouds--inject-2"><g id="freepik--clouds--inject-2"><path d="M106.08,45.13l-9.18,5.3c0-.41.08-.81.08-1.21V46.56c0-4.73-3.33-6.65-7.42-4.28a14.14,14.14,0,0,0-4.42,4.25c-.68-6-5.34-8.17-11-4.89C68,45.17,63,53.78,63,60.86v4A10.5,10.5,0,0,0,64,69.45l-7.63,4.4A9.09,9.09,0,0,0,52.23,81c0,2.62,1.84,3.68,4.11,2.37l49.74-28.71a9.11,9.11,0,0,0,4.11-7.13C110.19,44.89,108.35,43.82,106.08,45.13Z" style="fill:#ebebeb"></path><path d="M150.24,65l-6.93,4a7.22,7.22,0,0,0,.06-.92v-2c0-3.57-2.5-5-5.6-3.23a10.78,10.78,0,0,0-3.33,3.21c-.51-4.49-4-6.16-8.31-3.69-4.63,2.67-8.38,9.16-8.38,14.51v3a8,8,0,0,0,.71,3.48l-5.75,3.32a6.86,6.86,0,0,0-3.11,5.38c0,2,1.39,2.78,3.11,1.79l37.53-21.67a6.86,6.86,0,0,0,3.11-5.38C153.35,64.83,152,64,150.24,65Z" style="fill:#ebebeb"></path></g></g><g id="freepik--Shadows--inject-2"><ellipse id="freepik--Shadow--inject-2" cx="398.11" cy="403.67" rx="49.29" ry="28.46" style="fill:#e0e0e0"></ellipse><path id="freepik--shadow--inject-2" d="M79.49,431.39,35.75,406.13c-2.47-1.42-2.47-3.73,0-5.15L280.51,259.83a9.89,9.89,0,0,1,8.93,0l43.75,25.26c2.46,1.42,2.46,3.73,0,5.15L88.42,431.39A9.89,9.89,0,0,1,79.49,431.39Z" style="fill:#e0e0e0"></path><path id="freepik--shadow--inject-2" d="M314.39,341.39,309,338.25c-12.35-7.13-31.85-7.48-43.46-.78L245.18,349.2a1.5,1.5,0,1,0,1.5,2.6L267,340.07c10.78-6.23,28.94-5.88,40.46.77l5.44,3.15c5.3,3.06,8.22,7,8.22,11.2s-2.92,8.14-8.22,11.2l-74.49,43c-11.53,6.66-30.28,6.65-41.81,0L174.9,396.88c-12.35-7.13-32.45-7.13-44.8,0L124.66,400c-6.53,3.77-10.13,8.79-10.13,14.12,0,4.92,3.12,9.43,8.79,12.7l19.42,11.22-8,4.71c-3.65,2.15-3.63,5.64,0,7.76L149.39,459a.66.66,0,0,1,0,1.25l-1.22.69c-.6.34-.6.9,0,1.25l1.89,1.09a2.37,2.37,0,0,0,2.17,0l6.62-3.8a2.44,2.44,0,0,1,2.17,0l12,7a2.41,2.41,0,0,0,2.16,0l1.9-1.1c.6-.34.6-.9,0-1.25l-12-7c-.6-.35-.6-.91,0-1.25l4.62-2.67a2.35,2.35,0,0,1,2.16,0l12.06,6.95a2.35,2.35,0,0,0,2.16,0L188,459a.66.66,0,0,0,0-1.25l-12-7a.66.66,0,0,1,0-1.25l6-3.44a.66.66,0,0,0,0-1.25l-1.9-1.09a2.37,2.37,0,0,0-2.17,0l-1.89,1.09a2.44,2.44,0,0,1-2.17,0l-18.53-10.7a6.54,6.54,0,0,0-5.95,0l-3.69,2.17a1.65,1.65,0,0,0-.46-.41l-20.31-11.72c-4.7-2.72-7.29-6.3-7.29-10.11,0-4.16,3.15-8.36,8.63-11.52l5.44-3.15c11.53-6.65,30.28-6.65,41.8,0L195.09,412c12.36,7.13,32.45,7.13,44.81,0l74.49-43c6.27-3.62,9.72-8.52,9.72-13.8S320.66,345,314.39,341.39Z" style="fill:#e0e0e0"></path></g><g id="freepik--Plant--inject-2"><g id="freepik--Plants--inject-2"><path d="M416.43,402.36c-.39-19.29,7.18-36.72,13.66-45.3s17.35-17,24.91-14.6c7,2.2,6.53,11.37-1.77,17.67S432.42,374.39,429,385l-8.38,19.48Z" style="fill:#30566D"></path><path d="M416.43,402.36c-.39-19.29,7.18-36.72,13.66-45.3s17.35-17,24.91-14.6c7,2.2,6.53,11.37-1.77,17.67S432.42,374.39,429,385l-8.38,19.48Z" style="opacity:0.15"></path><path d="M418.73,400.52a.48.48,0,0,0,.41-.4c1.8-10.68,5.38-23,11.46-32.72,6.54-10.44,16-16.85,21.54-19.06a.47.47,0,0,0,.26-.61.47.47,0,0,0-.62-.26c-5.63,2.26-15.37,8.91-22.07,19.63-6.11,9.76-9.69,22.13-11.5,32.87a.47.47,0,0,0,.39.54Z" style="fill:#fff"></path><path d="M423.4,406.55c.94-3.66,5.22-9.78,12.26-14.93,7.79-5.69,17.77-8.48,20-12.81,2.65-5.2-1.8-9.92-9.93-8.69s-23.36,12.95-26.49,34Z" style="fill:#30566D"></path><path d="M421.72,402.78a.47.47,0,0,0,.4-.32c6.25-19.09,20.49-26.12,27.15-27.17a.47.47,0,1,0-.15-.93c-7.36,1.16-21.52,8.32-27.9,27.8a.48.48,0,0,0,.3.6A.47.47,0,0,0,421.72,402.78Z" style="fill:#fff"></path></g></g><g id="freepik--Device--inject-2"><g id="freepik--Plug--inject-2"><path d="M144.38,434.11a1.53,1.53,0,0,1-.75-.2l-20.31-11.73c-5.67-3.27-8.79-7.78-8.79-12.7,0-5.34,3.6-10.35,10.13-14.12l5.44-3.15c12.35-7.13,32.45-7.13,44.8,0l21.69,12.53c11.53,6.65,30.28,6.65,41.81,0l74.49-43c5.3-3.06,8.22-7,8.22-11.21s-2.92-8.14-8.22-11.2l-5.44-3.14c-11.53-6.65-29.68-7-40.46-.77l-20.31,11.72a1.5,1.5,0,0,1-1.5-2.6l20.31-11.72c11.61-6.71,31.11-6.36,43.46.77l5.44,3.15c6.27,3.61,9.72,8.51,9.72,13.79s-3.45,10.19-9.72,13.8l-74.49,43c-12.36,7.14-32.45,7.14-44.81,0L173.4,394.81c-11.52-6.65-30.27-6.65-41.8,0L126.16,398c-5.48,3.17-8.63,7.37-8.63,11.53,0,3.8,2.59,7.39,7.29,10.1l20.31,11.73a1.5,1.5,0,0,1-.75,2.8Z" style="fill:#37474f"></path><path d="M131.76,437.36v1.73a9.59,9.59,0,0,0,4.33,7.5l16,9.22,16.24-9.38V432.36l-15.78-7.28a10.81,10.81,0,0,0-8.87.4l-7.59,4.38A9.58,9.58,0,0,0,131.76,437.36Z" style="fill:#37474f"></path><path d="M152.55,425.08a10.81,10.81,0,0,0-8.87.4l-7.59,4.38c-2.39,1.38-2.29,3.44.21,4.6l15.77,7.28,16.26-9.38Z" style="fill:#455a64"></path><path d="M150.54,438.35a4.78,4.78,0,0,0-2.16,3.75v11.58l3.7,2.13,16.24-9.38V432.36l-4.12-1.9Z" style="opacity:0.1"></path><path d="M169.71,429.94a1.53,1.53,0,0,0-1.52.15l-16,9.23a4.78,4.78,0,0,0-2.17,3.75v13.76a1.51,1.51,0,0,0,.64,1.4l2,1.17a1.5,1.5,0,0,0,1.53-.15l16-9.22a4.8,4.8,0,0,0,2.16-3.75V432.51a1.54,1.54,0,0,0-.63-1.4Z" style="fill:#37474f"></path><path d="M154.24,440.49l16-9.23c1.19-.69,2.16-.13,2.16,1.25v13.77a4.8,4.8,0,0,1-2.16,3.75l-16,9.22c-1.2.69-2.17.13-2.17-1.25V444.24A4.78,4.78,0,0,1,154.24,440.49Z" style="fill:#455a64"></path><path d="M170.79,450.89l-13.22-7.63-1.43.83v9.38l13.21,7.63a2.14,2.14,0,0,0,2.15.2l1.44-.83a2.1,2.1,0,0,0,.88-2v-2.38A6.69,6.69,0,0,0,170.79,450.89Zm-2.43,2.51a4.47,4.47,0,0,1,2,3.51,2.38,2.38,0,0,1-.07.56,2.46,2.46,0,0,1-.52-.21,4.51,4.51,0,0,1-2-3.52,2.47,2.47,0,0,1,.07-.57A2.13,2.13,0,0,1,168.36,453.4Z" style="fill:#30566D"></path><path d="M170.79,450.89l-13.22-7.63-1.43.83,13.21,7.63a6.69,6.69,0,0,1,3,5.25v2.38a2.09,2.09,0,0,1-.95,2l.07,0,1.44-.84a2.09,2.09,0,0,0,.88-2v-2.38A6.72,6.72,0,0,0,170.79,450.89Z" style="fill:#fff;opacity:0.85"></path><path d="M173.82,456.14v2.38a2.09,2.09,0,0,1-.88,2l-1.44.84-.06,0a2.09,2.09,0,0,0,.94-2V457a6.21,6.21,0,0,0-.89-3l1.44-.83A6.18,6.18,0,0,1,173.82,456.14Z" style="fill:#30566D"></path><path d="M173.82,456.14v2.38a2.09,2.09,0,0,1-.88,2l-1.44.84-.06,0a2.09,2.09,0,0,0,.94-2V457a6.21,6.21,0,0,0-.89-3l1.44-.83A6.18,6.18,0,0,1,173.82,456.14Z" style="fill:#fff;opacity:0.6000000000000001"></path><path d="M173.82,456.14v2.38a2.09,2.09,0,0,1-.88,2l-1.44.84-.06,0a2.09,2.09,0,0,0,.94-2V457a6.21,6.21,0,0,0-.89-3l1.44-.83A6.18,6.18,0,0,1,173.82,456.14Z" style="opacity:0.05"></path><path d="M167.77,453.74a2.4,2.4,0,0,1,.07-.57h0c-.87-.24-1.51.31-1.51,1.4a4.49,4.49,0,0,0,2,3.52c.94.55,1.74.26,2-.62a1.72,1.72,0,0,1-.52-.21A4.49,4.49,0,0,1,167.77,453.74Z" style="fill:#fff;opacity:0.6000000000000001"></path><path d="M167.77,453.74a2.4,2.4,0,0,1,.07-.57h0c-.87-.24-1.51.31-1.51,1.4a4.49,4.49,0,0,0,2,3.52c.94.55,1.74.26,2-.62a1.72,1.72,0,0,1-.52-.21A4.49,4.49,0,0,1,167.77,453.74Z" style="opacity:0.1"></path><path d="M169.35,451.72l-13.21-7.63v9.38l13.21,7.63c1.68,1,3,.18,3-1.75V457A6.66,6.66,0,0,0,169.35,451.72Zm-1,6.37a4.51,4.51,0,0,1-2-3.52c0-1.3.91-1.82,2-1.17a4.47,4.47,0,0,1,2,3.51C170.39,458.21,169.48,458.73,168.36,458.09Z" style="fill:#fff;opacity:0.7000000000000001"></path><path d="M181.54,444.68l-13.21-7.63-1.44.83v9.38l13.21,7.63a2.12,2.12,0,0,0,2.15.21l1.44-.84a2.09,2.09,0,0,0,.88-1.95v-2.38A6.69,6.69,0,0,0,181.54,444.68Zm-2.43,2.51a4.47,4.47,0,0,1,2,3.52,2.23,2.23,0,0,1-.07.55,1.72,1.72,0,0,1-.52-.21,4.49,4.49,0,0,1-2-3.52,2.31,2.31,0,0,1,.07-.56A2.07,2.07,0,0,1,179.11,447.19Z" style="fill:#30566D"></path><path d="M181.54,444.68l-13.22-7.63-1.43.83,13.21,7.63a6.69,6.69,0,0,1,3,5.25v2.38a2.09,2.09,0,0,1-.95,2l.07,0,1.44-.84a2.09,2.09,0,0,0,.88-1.95v-2.38A6.72,6.72,0,0,0,181.54,444.68Z" style="fill:#fff;opacity:0.85"></path><path d="M184.57,449.93v2.38a2.09,2.09,0,0,1-.88,1.95l-1.44.84-.06,0a2.09,2.09,0,0,0,.94-2v-2.38a6.21,6.21,0,0,0-.89-3l1.44-.83A6.18,6.18,0,0,1,184.57,449.93Z" style="fill:#30566D"></path><path d="M184.57,449.93v2.38a2.09,2.09,0,0,1-.88,1.95l-1.44.84-.06,0a2.09,2.09,0,0,0,.94-2v-2.38a6.21,6.21,0,0,0-.89-3l1.44-.83A6.18,6.18,0,0,1,184.57,449.93Z" style="fill:#fff;opacity:0.6000000000000001"></path><path d="M184.57,449.93v2.38a2.09,2.09,0,0,1-.88,1.95l-1.44.84-.06,0a2.09,2.09,0,0,0,.94-2v-2.38a6.21,6.21,0,0,0-.89-3l1.44-.83A6.18,6.18,0,0,1,184.57,449.93Z" style="opacity:0.05"></path><path d="M178.52,447.53a2.31,2.31,0,0,1,.07-.56h0c-.86-.24-1.51.3-1.51,1.39a4.49,4.49,0,0,0,2,3.52c.94.55,1.74.26,2-.62a1.72,1.72,0,0,1-.52-.21A4.49,4.49,0,0,1,178.52,447.53Z" style="fill:#fff;opacity:0.6000000000000001"></path><path d="M178.52,447.53a2.31,2.31,0,0,1,.07-.56h0c-.86-.24-1.51.3-1.51,1.39a4.49,4.49,0,0,0,2,3.52c.94.55,1.74.26,2-.62a1.72,1.72,0,0,1-.52-.21A4.49,4.49,0,0,1,178.52,447.53Z" style="opacity:0.1"></path><path d="M180.11,445.51l-13.22-7.63v9.38l13.21,7.63c1.68,1,3,.19,3-1.75v-2.38A6.72,6.72,0,0,0,180.11,445.51Zm-1,6.37a4.49,4.49,0,0,1-2-3.52c0-1.29.91-1.82,2-1.17a4.47,4.47,0,0,1,2,3.52C181.14,452,180.23,452.53,179.11,451.88Z" style="fill:#fff;opacity:0.7000000000000001"></path></g><g id="freepik--device--inject-2"><path d="M227.05,392.14l37.6-21.75c3.88-2.23,5.82-5.17,5.82-8.1s0-5.23,0-5.23l-39-22a8.29,8.29,0,0,1-3.75-6.49V282.21l-65.68,38v46.37a8.25,8.25,0,0,0,3.74,6.48L199,392.14C206.73,396.61,219.3,396.61,227.05,392.14Z" style="fill:#30566D"></path><g style="opacity:0.6000000000000001"><path d="M227.05,392.14l37.6-21.75c3.88-2.23,5.82-5.17,5.82-8.1s0-5.23,0-5.23l-39-22a8.29,8.29,0,0,1-3.75-6.49V282.21l-65.68,38v46.37a8.25,8.25,0,0,0,3.74,6.48L199,392.14C206.73,396.61,219.3,396.61,227.05,392.14Z"></path></g><path d="M177.81,374.74V380l-12-6.94a8.3,8.3,0,0,1-3.74-6.48V320.17L174.55,313c.25,3.17.54,6.46.8,9.66l-8.78,5.08v36.22a8.19,8.19,0,0,0,3.74,6.48Z" style="opacity:0.30000000000000004"></path><path d="M166.57,363.92a8.25,8.25,0,0,0,3.74,6.48L199,386.91c7.75,4.47,20.32,4.48,28.08,0l37.62-21.74c7.75-4.47,7.75-11.73,0-16.21L236,332.45a8.28,8.28,0,0,1-3.74-6.49V289.73l-65.68,38Z" style="fill:#30566D"></path><path d="M166.57,363.92a8.25,8.25,0,0,0,3.74,6.48L199,386.91c7.75,4.47,20.32,4.48,28.08,0l37.62-21.74c7.75-4.47,7.75-11.73,0-16.21L236,332.45a8.28,8.28,0,0,1-3.74-6.49V289.73l-65.68,38Z" style="opacity:0.30000000000000004"></path><path d="M243.62,336.85h0l-7.62-4.4a8.28,8.28,0,0,1-3.74-6.49V289.73l-65.68,38v36.23a8.25,8.25,0,0,0,3.74,6.48l7.5,4.33Z" style="opacity:0.5"></path><path d="M270.48,357.06v5.23c0,2.94-2,5.86-5.82,8.11l-37.61,21.73a28.17,28.17,0,0,1-13.4,3.33v-5.21a28.17,28.17,0,0,0,13.4-3.33l37.61-21.75C268.53,362.94,270.48,360,270.48,357.06Z" style="fill:#30566D"></path><path d="M270.48,357.06v5.23c0,2.94-2,5.86-5.82,8.11l-37.61,21.73a28.17,28.17,0,0,1-13.4,3.33v-5.21a28.17,28.17,0,0,0,13.4-3.33l37.61-21.75C268.53,362.94,270.48,360,270.48,357.06Z" style="opacity:0.5"></path><path d="M61.1,409a10,10,0,0,0,9.07-.17l254-146.66c2.58-1.49,4.67-5.12,4.67-4.1V26.72c0-7-2-10.54-4.39-11.94a10,10,0,0,0-9.06.17L61.4,161.61a10.32,10.32,0,0,0-4.68,8.1V401A10,10,0,0,0,61.1,409Z" style="fill:#30566D"></path><path d="M70.17,408.78l254-146.66c2.58-1.49,4.68-5.12,4.68-4.11V26.71c0-7-2.1-8.19-4.68-6.7l-254,146.66a10.32,10.32,0,0,0-4.68,8.1v231.3C65.49,409.06,67.59,410.27,70.17,408.78Z" style="fill:#30566D"></path><path d="M70.17,408.78l254-146.66c2.58-1.49,4.68-5.12,4.68-4.11V26.71c0-7-2.1-8.19-4.68-6.7l-254,146.66a10.32,10.32,0,0,0-4.68,8.1v231.3C65.49,409.06,67.59,410.27,70.17,408.78Z" style="opacity:0.5"></path><path d="M69.48,414.12a10.09,10.09,0,0,1-8.38-.18A10,10,0,0,1,56.71,406V391.28l8.78,5.08v14.71C65.49,413.79,67.22,415,69.48,414.12Z" style="fill:#30566D"></path><path d="M69.48,414.12a10.09,10.09,0,0,1-8.38-.18A10,10,0,0,1,56.71,406V391.28l8.78,5.08v14.71C65.49,413.79,67.22,415,69.48,414.12Z" style="opacity:0.5"></path><path d="M65.49,396.36v14.7c0,3,2.1,4.2,4.68,2.7l254-146.65a10.35,10.35,0,0,0,4.68-8.11V244.26Z" style="fill:#30566D"></path><path d="M65.49,396.32v14.74c0,3,2.1,4.2,4.68,2.7l254-146.65a10.35,10.35,0,0,0,4.68-8.11V244.26Z" style="opacity:0.30000000000000004"></path><path d="M74.27,377.88V177.69a6.23,6.23,0,0,1,2.81-4.87L317.28,34.14c1.55-.89,2.81-.17,2.81,1.62V236a6.21,6.21,0,0,1-2.81,4.86L77.08,379.51C75.53,380.4,74.27,379.67,74.27,377.88Z" style="fill:#30566D"></path><path d="M74.27,377.88V177.69a6.23,6.23,0,0,1,2.81-4.87L317.28,34.14c1.55-.89,2.81-.17,2.81,1.62V236a6.21,6.21,0,0,1-2.81,4.86L77.08,379.51C75.53,380.4,74.27,379.67,74.27,377.88Z" style="fill:#263238"></path><path d="M66.87,170.14a10,10,0,0,0-1.38,4.63V396.36l-8.78-5.08V169.71a9.69,9.69,0,0,1,1.37-4.62Z" style="opacity:0.7000000000000001"></path><path d="M328.83,21.94c-.33-2.41-2.28-3.28-4.64-1.93l-254,146.66a9.5,9.5,0,0,0-3.31,3.48l-8.78-5.07a9.66,9.66,0,0,1,3.31-3.48L315.42,15a10,10,0,0,1,9.07-.17A10.1,10.1,0,0,1,328.83,21.94Z" style="opacity:0.30000000000000004"></path></g></g><g id="freepik--Window--inject-2"><g id="freepik--window--inject-2"><path d="M98.4,390.08a4,4,0,0,1-1.83.55,4.55,4.55,0,0,1-2.68-.47,5,5,0,0,1-2.18-4l0-181.6,4.39,2.53V388.73c0,1.06.53,1.67,1.29,1.67A2.37,2.37,0,0,0,98.4,390.08Z" style="fill:#f0f0f0"></path><path d="M339.83,248a5.14,5.14,0,0,1-2.33,4L98.4,390.08c-1.28.74-2.32.14-2.32-1.35V192l6.41-3.7c1.28-.74,3.37-12,4.66-12.79l55.6-32.1c1.29-.74,4.32,7.61,5.6,6.86l171.48-99V248Z" style="fill:#fafafa"></path><path d="M338.75,53.1V248a4.1,4.1,0,0,1-1.79,3.1L97.86,389.15a1.13,1.13,0,0,1-.49.17c-.22,0-.22-.56-.22-.59V192.61l5.88-3.4c.93-.54,1.51-2.35,2.82-7a34.79,34.79,0,0,1,1.92-5.82l55.1-31.81a21.61,21.61,0,0,1,1.75,2.79c1.5,2.64,2.34,4,3.56,4a1.36,1.36,0,0,0,.71-.2L338.75,53.1M163.28,144.33h0M339.83,51.24l-171.48,99a.34.34,0,0,1-.17.05c-1.3,0-4-7-5.26-7a.33.33,0,0,0-.17,0l-55.6,32.1c-1.29.75-3.38,12-4.66,12.79L96.08,192V388.73c0,1.06.52,1.67,1.29,1.67a2,2,0,0,0,1-.32L337.5,252a5.14,5.14,0,0,0,2.33-4V51.24Z" style="fill:#e0e0e0"></path><path d="M93.89,199.15a5,5,0,0,1-2.19-4V177A5.15,5.15,0,0,1,94,173l239.1-138a4.36,4.36,0,0,1,6.69,3.87V57a5.12,5.12,0,0,1-2.33,4L98.4,199.07A5,5,0,0,1,93.89,199.15Z" style="fill:#30566D"></path><path d="M339.8,38.41c-.16-1.21-1.14-1.65-2.3-1L98.4,175.49a5.07,5.07,0,0,0-1.65,1.75l-4.37-2.53A4.86,4.86,0,0,1,94,173l239.1-138a4.34,4.34,0,0,1,6.67,3.49Z" style="fill:#fff;opacity:0.4"></path><path d="M96.75,177.24a4.72,4.72,0,0,0-.67,2.29v27.61l-4.39-2.53V177a2.62,2.62,0,0,1,0-.28,4.71,4.71,0,0,1,.09-.58,5.57,5.57,0,0,1,.58-1.44Z" style="opacity:0.1"></path><path d="M339.82,38.78V51.24l-171.48,99c-1.28.75-2.32.14-2.32-1.34v-4.72c0-1.48-1-2.09-2.34-1.34l-56.54,32.64a5.15,5.15,0,0,0-2.33,4v4.71a5.17,5.17,0,0,1-2.33,4L96.08,192V179.53a5.17,5.17,0,0,1,2.32-4l239.1-138C338.78,36.69,339.82,37.3,339.82,38.78Z" style="fill:#30566D"></path><path d="M328.9,46.59c1.62-.93,2.93-.17,2.93,1.7a6.49,6.49,0,0,1-2.93,5.08c-1.62.93-2.94.17-2.94-1.7A6.5,6.5,0,0,1,328.9,46.59Z" style="fill:#fff"></path><path d="M318.34,52.68c1.62-.93,2.93-.18,2.93,1.69a6.47,6.47,0,0,1-2.93,5.08c-1.62.94-2.93.18-2.93-1.69A6.49,6.49,0,0,1,318.34,52.68Z" style="fill:#fff"></path><path d="M307.78,58.77c1.62-.94,2.93-.18,2.93,1.69a6.49,6.49,0,0,1-2.93,5.08c-1.62.93-2.93.18-2.93-1.69A6.47,6.47,0,0,1,307.78,58.77Z" style="fill:#fff"></path><path d="M339.83,51.24V66.39L96.08,207.14V192l4.79-2.77c1.28-.74,1.71-1.87,2.32-4l1.63-5.64c.51-2,1-3.29,2.33-4l55.6-32.1c1.29-.74,2.3-.82,3.28.8l2,3.62c.73,1.26,1.1,2,2.38,1.26Z" style="fill:#e6e6e6"></path><polygon points="96.08 191.98 96.08 207.14 91.69 204.61 91.69 189.47 96.08 191.98" style="fill:#e0e0e0"></polygon><path d="M106.77,193.08l-3.66,2.11,1.39-2.68a.68.68,0,0,0,0-.66c-.11-.13-.29,0-.42.2l-2,3.81v0s0,.09-.05.14,0,0,0,0a1.23,1.23,0,0,0,0,.19.72.72,0,0,0,0,.17s0,0,0,0a.56.56,0,0,0,.05.08h0l2,1.52a.16.16,0,0,0,.2,0,.55.55,0,0,0,.22-.28c.11-.25.09-.53,0-.62l-1.39-1.08,3.66-2.11a.77.77,0,0,0,.29-.62C107.06,193.11,106.93,193,106.77,193.08Z" style="fill:#455a64;opacity:0.5"></path><path d="M109.82,191.31l3.66-2.11-1.4-1.07a.59.59,0,0,1,0-.63c.1-.25.29-.37.41-.28l2,1.53h0a.18.18,0,0,1,.06.08s0,0,0,0a.47.47,0,0,1,0,.17.69.69,0,0,1,0,.2s0,0,0,0l-.06.15h0l-2,3.82a.47.47,0,0,1-.19.22.16.16,0,0,1-.22,0,.65.65,0,0,1,0-.65l1.4-2.68-3.66,2.11c-.16.09-.29,0-.29-.28A.79.79,0,0,1,109.82,191.31Z" style="fill:#455a64;opacity:0.5"></path><path d="M121.82,180.78c0-.22-.21-.2-.31,0l-.5,1.23c-.86-.09-1.89.74-2.59,2.22-.91,1.92-.91,4.19,0,5.06a1.29,1.29,0,0,0,1.64.1,4.56,4.56,0,0,0,1.65-2,.65.65,0,0,0,0-.64c-.12-.11-.3,0-.42.24-.68,1.43-1.78,2.07-2.45,1.42s-.68-2.35,0-3.78c.48-1,1.17-1.62,1.77-1.66l-.37.93c-.1.24,0,.46.14.36l1.49-1a.43.43,0,0,0,.17-.4Z" style="fill:#455a64;opacity:0.5"></path><path d="M161.14,150.31l1.34-2.82a.9.9,0,0,0,0-.88c-.16-.15-.42,0-.57.33l-1.34,2.82-1.33-1.28c-.16-.15-.41,0-.57.33a.85.85,0,0,0,0,.88L160,151l-1.33,2.82a.85.85,0,0,0,0,.88.21.21,0,0,0,.28,0,.75.75,0,0,0,.29-.35l1.33-2.82,1.34,1.28a.21.21,0,0,0,.28,0,.75.75,0,0,0,.29-.35.9.9,0,0,0,0-.88Z" style="fill:#455a64;opacity:0.5"></path><path d="M126.68,184.25v-4.72a5.14,5.14,0,0,1,2.33-4L324.38,62.74c1.29-.75,2.33-.14,2.33,1.34V68.8a5.14,5.14,0,0,1-2.33,4L129,185.59C127.72,186.34,126.68,185.73,126.68,184.25Z" style="fill:#fafafa"></path><path d="M321.21,73.2a.65.65,0,0,1-.21,0,.63.63,0,0,1-.35-.71l.23-1.91-.9-.65a.63.63,0,0,1-.24-.52,1,1,0,0,1,.38-.81l1.37-1.06a.32.32,0,0,0,.06-.11l.61-2a.85.85,0,0,1,.69-.65.52.52,0,0,1,.54.32h0l.51,1.09,1.16-.44a.52.52,0,0,1,.61.14.83.83,0,0,1,0,.94l-1,1.86a.45.45,0,0,0,0,.11l.24,1.68a1,1,0,0,1-.3.84.61.61,0,0,1-.54.21L323,71.36l-1.21,1.54A.69.69,0,0,1,321.21,73.2Zm-.66-3.9.9.65a.68.68,0,0,1,.24.64l-.16,1.28.81-1a.71.71,0,0,1,.62-.3l1.12.14a.38.38,0,0,0,0-.13l-.24-1.68a1.08,1.08,0,0,1,.12-.6l.87-1.63L324,67a.55.55,0,0,1-.71-.28l-.4-.86-.55,1.79a1,1,0,0,1-.34.51l-1.37,1A.29.29,0,0,0,320.55,69.3Zm.42,1.3Zm1.69-5.2Z" style="fill:#e0e0e0"></path><g style="opacity:0.5"><path d="M329.46,62.16a.8.8,0,0,1-.41-1.5l6.56-3.79a.81.81,0,1,1,.81,1.4l-6.56,3.78A.73.73,0,0,1,329.46,62.16Z" style="fill:#455a64"></path><path d="M329.46,66a.8.8,0,0,1-.7-.4.82.82,0,0,1,.29-1.11l6.56-3.78a.81.81,0,0,1,1.11.29.8.8,0,0,1-.3,1.1l-6.56,3.79A.73.73,0,0,1,329.46,66Z" style="fill:#455a64"></path><path d="M329.46,69.74a.81.81,0,0,1-.41-1.51l6.56-3.79a.82.82,0,0,1,1.11.3.8.8,0,0,1-.3,1.1l-6.56,3.79A.83.83,0,0,1,329.46,69.74Z" style="fill:#455a64"></path></g><g id="freepik--Search--inject-2"><g style="opacity:0.5"><path d="M103.27,211.38a.8.8,0,0,1-.41-1.5l6.56-3.79a.81.81,0,0,1,.81,1.4l-6.56,3.78A.76.76,0,0,1,103.27,211.38Z" style="fill:#455a64"></path><path d="M103.27,215.17a.8.8,0,0,1-.7-.4.81.81,0,0,1,.29-1.11l6.56-3.78a.8.8,0,0,1,1.1.29.81.81,0,0,1-.29,1.11l-6.56,3.78A.76.76,0,0,1,103.27,215.17Z" style="fill:#455a64"></path><path d="M103.27,219a.81.81,0,0,1-.41-1.51l6.56-3.78a.79.79,0,0,1,1.1.29.8.8,0,0,1-.29,1.1l-6.56,3.79A.86.86,0,0,1,103.27,219Z" style="fill:#455a64"></path></g><path d="M161.45,178v5.81c0,1.19.84,1.67,1.87,1.08l77.93-45.06V129.69l-77.92,45.06A4.14,4.14,0,0,0,161.45,178Z" style="fill:#e6e6e6"></path><path d="M251.07,124c1-.6,1.87-.11,1.87,1.08v5.81a4.15,4.15,0,0,1-1.87,3.24l-9.82,5.67V129.69Z" style="fill:#30566D"></path><path d="M250.34,132l-1.09-.35a6.11,6.11,0,0,0,.17-1.41,2.57,2.57,0,0,0-1-2.34,1.55,1.55,0,0,0-1.59.08,5.6,5.6,0,0,0-2.19,4.56,2.57,2.57,0,0,0,1,2.34,1.39,1.39,0,0,0,.69.18,1.75,1.75,0,0,0,.9-.26,4.58,4.58,0,0,0,1.77-2.37l1.1.34a.25.25,0,0,0,.12,0,.4.4,0,0,0,.12-.79Zm-3.51,2.1a.77.77,0,0,1-.79.07,1.9,1.9,0,0,1-.59-1.63,4.92,4.92,0,0,1,1.78-3.86,1.05,1.05,0,0,1,.5-.15.51.51,0,0,1,.29.08,1.9,1.9,0,0,1,.59,1.63A4.92,4.92,0,0,1,246.83,134.09Z" style="fill:#fafafa"></path><path d="M129.06,194.53,117.81,201a4.1,4.1,0,0,0-1.87,3.22v5.79c0,1.19.84,1.67,1.87,1.08l11.25-6.51a4.11,4.11,0,0,0,1.86-3.23V195.6C130.92,194.42,130.09,193.93,129.06,194.53Z" style="fill:#30566D"></path><path d="M324.71,81.56a9.7,9.7,0,0,0-4.38,7.59c0,2.8,2,3.93,4.38,2.54a9.71,9.71,0,0,0,4.39-7.6C329.1,81.29,327.13,80.16,324.71,81.56Z" style="fill:#30566D"></path><path d="M324.2,86a.76.76,0,0,1-.39-.1,1,1,0,0,1-.42-.88,2.52,2.52,0,0,1,1.15-2h0a.87.87,0,0,1,1.4.81,2.54,2.54,0,0,1-1.16,2A1.23,1.23,0,0,1,324.2,86Z" style="fill:#fff"></path><path d="M326.44,86.31a1.5,1.5,0,0,0-1.54.12l-.64.37a4.32,4.32,0,0,0-2,3.41v.46a2.47,2.47,0,0,0,2.42-.26,7,7,0,0,0,2.42-2.54v-.11A1.59,1.59,0,0,0,326.44,86.31Z" style="fill:#fff"></path><path d="M309.2,95.12V93.57c0-1.76-1.07-2.57-2.39-1.81h0a5.74,5.74,0,0,0-2.4,4.58v1.39a5.52,5.52,0,0,1-.81,2.7h0a1.48,1.48,0,0,0-.2.7h0c0,.45.27.65.6.46l5.61-3.23a1.47,1.47,0,0,0,.6-1.16h0a.59.59,0,0,0-.18-.47h0A1.63,1.63,0,0,1,309.2,95.12Z" style="fill:#30566D"></path><path d="M308,99.8a2.77,2.77,0,0,1-1.15,2.2c-.64.36-1.16,0-1.16-.87Z" style="fill:#30566D"></path><path d="M288.52,102.48a2.57,2.57,0,0,1,1-.34,1.32,1.32,0,0,1,.8.16,1.34,1.34,0,0,1,.53.61A2.54,2.54,0,0,1,291,104a4.21,4.21,0,0,1-.11,1,6.17,6.17,0,0,1-.28.86,7.85,7.85,0,0,1-.37.77l-.4.72c-.12.23-.24.47-.34.7a3.19,3.19,0,0,0-.21.69,1.14,1.14,0,0,1-.08.33.47.47,0,0,1-.16.2l-1.13.65c-.07,0-.13,0-.17,0a.3.3,0,0,1-.08-.23,3.13,3.13,0,0,1,.13-.91,6.61,6.61,0,0,1,.3-.85c.13-.27.26-.54.41-.79s.27-.5.4-.72.22-.45.31-.66a1.68,1.68,0,0,0,.12-.59c0-.28-.07-.46-.2-.53s-.35,0-.63.12a1.57,1.57,0,0,0-.59.54,2.9,2.9,0,0,0-.27.57l-.14.5a.54.54,0,0,1-.23.33l-1.13.65a.12.12,0,0,1-.14,0,.27.27,0,0,1-.06-.2,4.91,4.91,0,0,1,.18-1.15,7.62,7.62,0,0,1,.5-1.29,6.26,6.26,0,0,1,.8-1.22A4.14,4.14,0,0,1,288.52,102.48Zm.8,9.24a.73.73,0,0,1-.07.31.48.48,0,0,1-.18.21l-1.16.67a.12.12,0,0,1-.17,0,.3.3,0,0,1-.08-.23v-1.43a.71.71,0,0,1,.08-.31.44.44,0,0,1,.17-.22l1.16-.67a.14.14,0,0,1,.18,0,.28.28,0,0,1,.07.22Z" style="fill:#30566D"></path></g></g></g><g id="freepik--speech-bubble--inject-2"><g id="freepik--speech-bubble--inject-2"><g id="freepik--speech-bubble--inject-2"><path d="M421.33,48.71l-50.21,29a2.85,2.85,0,0,0-1.3,2.24v64.2a2.82,2.82,0,0,0,1.3,2.23l4.64,2.6a2.88,2.88,0,0,0,2.59,0l50.22-29a2.89,2.89,0,0,0,1.29-2.24V53.52a2.8,2.8,0,0,0-1.3-2.22l-4.63-2.6A2.9,2.9,0,0,0,421.33,48.71Z" style="fill:#30566D"></path><path d="M377.06,148.22V84a2.86,2.86,0,0,1,1.29-2.24l50.22-29c.71-.41,1.29-.08,1.29.74v64.21a2.89,2.89,0,0,1-1.29,2.24l-50.22,29C377.63,149.38,377.06,149,377.06,148.22Z" style="fill:#30566D"></path><path d="M378.35,149a3,3,0,0,1-2.6,0l-4.63-2.6a2.83,2.83,0,0,1-1.3-2.22V80a2.68,2.68,0,0,1,.41-1.32l7.21,4.11a2.56,2.56,0,0,0-.38,1.27v64.2C377.06,149,377.59,149.41,378.35,149Z" style="opacity:0.2"></path><path d="M429.84,53.29c-.1-.65-.63-.88-1.27-.51l-50.22,29a2.66,2.66,0,0,0-.91,1l-7.21-4.11a2.54,2.54,0,0,1,.89-.92l50.22-29a2.88,2.88,0,0,1,2.59,0l4.63,2.59A2.86,2.86,0,0,1,429.84,53.29Z" style="fill:#fff;opacity:0.4"></path><path d="M369.82,99.3l-10.4,10.58a1.14,1.14,0,0,0,.19,1.77c.22.14,7.2,4.15,7.2,4.15l10.25-12.33Z" style="fill:#30566D"></path><path d="M369.82,99.3l-10.4,10.58a1.14,1.14,0,0,0,.19,1.77c.22.14,7.2,4.15,7.2,4.15l10.25-12.33Z" style="opacity:0.1"></path><path d="M377.06,103.47l-10.41,10.58a1.15,1.15,0,0,0,1,1.94l9.43-1.36C378.07,114.63,378.07,103.47,377.06,103.47Z" style="fill:#30566D"></path></g><g id="freepik--dead-emoji--inject-2"><path d="M395,101a1,1,0,0,1-.69-.28l-7.46-7.18a1,1,0,1,1,1.38-1.44l7.47,7.18a1,1,0,0,1,0,1.42A1,1,0,0,1,395,101Z" style="fill:#455a64"></path><path d="M387.54,105.34a1.11,1.11,0,0,1-.43-.09,1,1,0,0,1-.47-1.33l7.46-15.8a1,1,0,0,1,1.33-.48,1,1,0,0,1,.48,1.33l-7.46,15.8A1,1,0,0,1,387.54,105.34Z" style="fill:#455a64"></path><path d="M419.38,87a1,1,0,0,1-.7-.28l-7.46-7.18a1,1,0,0,1,0-1.41,1,1,0,0,1,1.42,0l7.46,7.18a1,1,0,0,1-.69,1.72Z" style="fill:#455a64"></path><path d="M411.91,91.27a1,1,0,0,1-.42-.09,1,1,0,0,1-.48-1.34l7.46-15.79a1,1,0,1,1,1.81.85l-7.46,15.8A1,1,0,0,1,411.91,91.27Z" style="fill:#455a64"></path><path d="M387.21,123.24a1,1,0,0,1-.87-.5,1,1,0,0,1,.37-1.36l32.5-18.77a1,1,0,0,1,1,1.74l-32.5,18.76A1,1,0,0,1,387.21,123.24Z" style="fill:#455a64"></path><path d="M409.86,123.77a3.13,3.13,0,0,1-1.56-.41,4.16,4.16,0,0,1-1.78-3.77v-9.07a1,1,0,1,1,2,0v9.07a2.3,2.3,0,0,0,.78,2,1.83,1.83,0,0,0,1.78-.25,8.34,8.34,0,0,0,3.56-6.48v-9.07a1,1,0,0,1,2,0v9.07a10.26,10.26,0,0,1-4.56,8.21A4.48,4.48,0,0,1,409.86,123.77Z" style="fill:#455a64"></path><path d="M411.58,117.93a1,1,0,0,1-1-1v-8.76a1,1,0,0,1,2,0v8.76A1,1,0,0,1,411.58,117.93Z" style="fill:#455a64"></path></g></g></g><g id="freepik--Character--inject-2"><g id="freepik--character--inject-2"><path d="M381.29,379.6c0-1.53-.4-10-.88-17.8-.5-8.21-.49-15.72-.49-15.72l13.88,10.36c-3,18.44-3.31,22.51-3.36,25.53l-.34.28a2.53,2.53,0,0,1,.08.77c0,3.58-4,5.52-7.17,7.92a58.2,58.2,0,0,1-8.5,5.6c-2.29,1.16-6.94,1.28-7.52-.19,4.42-2.77,9.7-6.28,12.74-9.64C381.18,385.11,381.19,382.74,381.29,379.6Z" style="fill:#ffa8a7"></path><path d="M361.58,400.9a2.79,2.79,0,0,0,.78,2.84,12.85,12.85,0,0,0,9.66,1.82c4.75-.84,7.27-2.31,9.11-4s4.41-4.08,6.55-4.66a13,13,0,0,0,4.73-2.2c.61-.65.39-3.4.39-3.4Z" style="fill:#263238"></path><path d="M390.48,380.69a.84.84,0,0,1,.67.69c.18.76.45,3,.82,4.19a22.27,22.27,0,0,1,.79,6.68c-.2,1.43-3.42,2.56-5.48,3.46a26.79,26.79,0,0,0-6.57,4.6,19.22,19.22,0,0,1-9.9,4.23c-3.68.14-7.89-.85-8.92-2.51-1.28-2.06-.41-3.33,4.93-6.12,1-.53,4.54-2.85,5.74-3.69,3.25-2.26,6.43-5.35,7.8-9.16a2,2,0,0,1,.73-1.17,1.71,1.71,0,0,1,1.05-.15,8.81,8.81,0,0,1,2.67.67c.75.31,1.81.67,1.84,1.61a3.12,3.12,0,0,1-.16,1c-.06.2-.1.46.07.56s.37,0,.51-.17a14,14,0,0,0,1.39-1.83,5.51,5.51,0,0,1,.82-.92c.28-.25.66-.38.91-.65A1.79,1.79,0,0,0,390.48,380.69Z" style="fill:#30566D"></path><path d="M390.48,380.69a.84.84,0,0,1,.67.69c.18.76.45,3,.82,4.19a22.27,22.27,0,0,1,.79,6.68c-.2,1.43-3.42,2.56-5.48,3.46a26.79,26.79,0,0,0-6.57,4.6,19.22,19.22,0,0,1-9.9,4.23c-3.68.14-7.89-.85-8.92-2.51-1.28-2.06-.41-3.33,4.93-6.12,1-.53,4.54-2.85,5.74-3.69,3.25-2.26,6.43-5.35,7.8-9.16a2,2,0,0,1,.73-1.17,1.71,1.71,0,0,1,1.05-.15,8.81,8.81,0,0,1,2.67.67c.75.31,1.81.67,1.84,1.61a3.12,3.12,0,0,1-.16,1c-.06.2-.1.46.07.56s.37,0,.51-.17a14,14,0,0,0,1.39-1.83,5.51,5.51,0,0,1,.82-.92c.28-.25.66-.38.91-.65A1.79,1.79,0,0,0,390.48,380.69Z" style="opacity:0.30000000000000004"></path><path d="M374.08,396.25c-3.33,1.52-1.85,2.08-.9,2.18s6.52-3.52,9.88-6.45,5.64-6.3,6.94-7.42c.49-.42,1-.93,1.47-1.4-.13-.74-.23-1.42-.32-1.78a.84.84,0,0,0-.67-.69,1.79,1.79,0,0,1-.29,1.28c-.25.27-.63.4-.91.65a5.51,5.51,0,0,0-.82.92,14,14,0,0,1-1.39,1.83C384.28,389.28,377.41,394.73,374.08,396.25Z" style="opacity:0.2"></path><path d="M373.4,397.91a.32.32,0,0,0,.21-.08.35.35,0,0,0,0-.48,8.12,8.12,0,0,0-6.34-2.16.34.34,0,0,0,.1.67,7.54,7.54,0,0,1,5.74,1.94A.3.3,0,0,0,373.4,397.91Z" style="fill:#ebebeb"></path><path d="M376.28,396a.34.34,0,0,0,.21-.08.34.34,0,0,0,0-.48,8.09,8.09,0,0,0-6.34-2.16.34.34,0,0,0-.28.39.35.35,0,0,0,.39.28,7.5,7.5,0,0,1,5.73,1.94A.32.32,0,0,0,376.28,396Z" style="fill:#ebebeb"></path><path d="M379.16,394.08a.34.34,0,0,0,.21-.08.34.34,0,0,0,0-.48,8.12,8.12,0,0,0-6.33-2.16.34.34,0,0,0-.28.39.33.33,0,0,0,.38.28,7.5,7.5,0,0,1,5.73,1.94A.32.32,0,0,0,379.16,394.08Z" style="fill:#ebebeb"></path><path d="M381.81,392a.32.32,0,0,0,.21-.08.35.35,0,0,0,0-.48,8.12,8.12,0,0,0-6.34-2.16.33.33,0,0,0-.28.39.34.34,0,0,0,.38.28,7.54,7.54,0,0,1,5.74,1.94A.3.3,0,0,0,381.81,392Z" style="fill:#ebebeb"></path><path d="M384.41,389.88a.32.32,0,0,0,.2-.08.33.33,0,0,0,0-.47,8.25,8.25,0,0,0-6.92-2.17.33.33,0,1,0,.11.66,7.65,7.65,0,0,1,6.3,1.95A.32.32,0,0,0,384.41,389.88Z" style="fill:#ebebeb"></path><path d="M409.29,359.54l15.18-.33c-.19,10.13-1.76,21.39-2,30.9-.05,1.79.09,13.9-.57,17.59-1,5.54-7.56,4.81-7.92,1.5s.35-17.46.33-18.91c0-6.1-2.86-16.39-4.4-27.33C409.85,362.43,409.36,360.06,409.29,359.54Z" style="fill:#ffa8a7"></path><path d="M411.53,411.52c-.12,3.25.17,5.44,1.14,7.45a4.78,4.78,0,0,0,5.31,2.47c2.25-.34,5.2-1.56,6.1-4.29a17.91,17.91,0,0,0,.75-7.7Z" style="fill:#263238"></path><path d="M422.52,388.94c.9.16.74,4.53.84,8.93.11,4.71,1.32,6.77,1.44,10.64.15,4.42-.27,6.35-2.05,8.84s-7.45,4.56-9.75.52c-1.88-3.29-1.64-6.72-1-11.06a108.91,108.91,0,0,0,1.27-11.07c.15-3.29.23-6.48,1.05-6.76,0,.48,0,1.1,0,1.57s-.07,2.15.44,2.21a7.12,7.12,0,0,0,.12-1.23,1.55,1.55,0,0,1,.35-1,1.74,1.74,0,0,1,1.05-.35A25,25,0,0,1,419,390a12.21,12.21,0,0,1,1.35.07,3.35,3.35,0,0,1,1.13.28.78.78,0,0,1,.45.49,1.4,1.4,0,0,1,0,.5,3.47,3.47,0,0,0,0,.91c0,.13.09.29.22.28s.16-.15.17-.25c.06-.53,0-.92.06-1.54,0-.28,0-.67,0-.95S422.51,389.23,422.52,388.94Z" style="fill:#30566D"></path><path d="M422.52,388.94c.9.16.74,4.53.84,8.93.11,4.71,1.32,6.77,1.44,10.64.15,4.42-.27,6.35-2.05,8.84s-7.45,4.56-9.75.52c-1.88-3.29-1.64-6.72-1-11.06a108.91,108.91,0,0,0,1.27-11.07c.15-3.29.23-6.48,1.05-6.76,0,.48,0,1.1,0,1.57s-.07,2.15.44,2.21a7.12,7.12,0,0,0,.12-1.23,1.55,1.55,0,0,1,.35-1,1.74,1.74,0,0,1,1.05-.35A25,25,0,0,1,419,390a12.21,12.21,0,0,1,1.35.07,3.35,3.35,0,0,1,1.13.28.78.78,0,0,1,.45.49,1.4,1.4,0,0,1,0,.5,3.47,3.47,0,0,0,0,.91c0,.13.09.29.22.28s.16-.15.17-.25c.06-.53,0-.92.06-1.54,0-.28,0-.67,0-.95S422.51,389.23,422.52,388.94Z" style="opacity:0.30000000000000004"></path><path d="M421.65,410.35c-.14,1.58,1.47,1.2,1.76-1s-.43-7.63-.05-11.46c-.1-4.4.06-8.77-.84-8.93,0,.06,0,.11,0,.17l-.09,2.22c0,.32,0,.61-.05.95-.28,3.22-.43,9.48-.44,12.45A54,54,0,0,1,421.65,410.35Z" style="opacity:0.2"></path><path d="M415.32,410.38a54.08,54.08,0,0,1-.32-5.62c0-2.95-.22-9.14-.53-12.38a8.07,8.07,0,0,1-.14-1.83c0-.44,0-1,0-1.47a.38.38,0,0,1,0-.1c-.59.22-.8,2-.92,4.15,0,1.28,0,2.86.14,4.78.42,3.82-.26,9.27,0,11.49S415.47,412,415.32,410.38Z" style="opacity:0.2"></path><path d="M414.73,410.49l.13,0a10.63,10.63,0,0,1,7-.05.35.35,0,0,0,.43-.2.34.34,0,0,0-.2-.43,11.25,11.25,0,0,0-7.52,0,.34.34,0,0,0-.18.44A.34.34,0,0,0,414.73,410.49Z" style="fill:#ebebeb"></path><path d="M414.31,407a.2.2,0,0,0,.11,0,13.35,13.35,0,0,1,7.87-.05.33.33,0,0,0,.43-.21.34.34,0,0,0-.21-.43,13.73,13.73,0,0,0-8.32.06.34.34,0,0,0-.2.43A.33.33,0,0,0,414.31,407Z" style="fill:#ebebeb"></path><path d="M422.39,403.65a.33.33,0,0,0,.3-.2.34.34,0,0,0-.16-.45,11.51,11.51,0,0,0-8.3,0,.33.33,0,0,0-.18.43.34.34,0,0,0,.43.19s4.12-1.64,7.77,0A.32.32,0,0,0,422.39,403.65Z" style="fill:#ebebeb"></path><path d="M422.45,400.56a.34.34,0,0,0,.15-.64,10.43,10.43,0,0,0-8.46-.06.34.34,0,0,0-.16.45.34.34,0,0,0,.45.15,9.92,9.92,0,0,1,7.88.07A.32.32,0,0,0,422.45,400.56Z" style="fill:#ebebeb"></path><path d="M422.51,397.08a.34.34,0,0,0,.3-.18.33.33,0,0,0-.15-.45c-4-2-8.35-.06-8.53,0a.34.34,0,0,0-.16.45.33.33,0,0,0,.44.17s4.22-1.87,7.95,0A.27.27,0,0,0,422.51,397.08Z" style="fill:#ebebeb"></path><path d="M418.1,261c5.41,14.8,5.51,24,4.65,39.56-.79,14.25-2.08,26.8-2.08,26.8.22,2.53,3.76,7.45,4.25,18.63a181.77,181.77,0,0,1-1,23.55s-7,2.58-12.92.05c0,0-6.17-26.72-7.87-39.79-1.48-11.41-3.65-24.88-3.65-24.88l-3.87,24.88a61.62,61.62,0,0,1,.6,11.37c-.5,6.08-3.46,22.41-3.46,22.41s-7.35,2.65-12.35-1.75c0,0-1.52-24.48-2.25-33.74-1-12.41-.77-46.43,2.14-63.86Z" style="fill:#455a64"></path><path d="M399.49,304.89l-2.65-20.61S387,283,382.56,278.84a16.11,16.11,0,0,0,11.59,7.27l3.62,19.24-2.15,24.42Z" style="fill:#263238"></path><path d="M402.1,229.12l.2-.09c12.65-6,17.73-20,17.11-33.3a35,35,0,0,0-2.59-12.32,20.88,20.88,0,0,0-8-9.57,20,20,0,0,0-9.15-2.75c-2.93-.19-6.72-.14-9.48,1a3.28,3.28,0,0,1-2.71.09,9.21,9.21,0,0,0-3-.18,10.43,10.43,0,0,0-6.88,4c-2.33,2.87-2.61,7.16-1.81,10.64.38,1.61,2.62,4,2.53,5.49-.14,2.23-1.76,4-3.54,5.92s-3.75,3.36-4.61,6.19c-.74,2.43-.87,7.58,4.57,9.56-7.92,10.47-.11,16.15,4.21,17.65a20.89,20.89,0,0,0,9,1.09C392.78,232,397.68,231.18,402.1,229.12Z" style="fill:#37474f"></path><path d="M374.75,246.9c4.66-4.79,13.07-15.64,13.07-15.64l4.76-16.48c.12,0-2.42.05-3.19,0-5.14.34-6.66.78-9.86,4.28-2.54,2.78-12.23,16-15.6,20.47L355,228.15c-2.14-3.24-1.8-6.87-2.91-9.51s-2.91-3.82-4.35-6.21-1.78-4-3-2.73.18,4.52.36,5.27,2,3-1,1.83-7.67-6.67-8.87-7.8-1.83.62-1.56,2-1,4.49-.55,6.77a9.28,9.28,0,0,0,3.18,5.87c2.18,2.19,7.49,4.87,9.57,7.74s6.51,11.79,9.23,17.17c3.44,6.83,6.38,9.08,10.25,6.78S373,248.67,374.75,246.9Z" style="fill:#ffa8a7"></path><path d="M363.93,239.54a10.9,10.9,0,0,1,3.25,6s1-3.3-2.48-7Z" style="fill:#f28f8f"></path><path d="M380.8,243.85c-6.32-5.2-4.24-12-1.93-16.55,4.62-9.13,9.42-12.72,11.42-12.68l12.59.11c6,.82,10.67.41,12.12.76,3.7.87,3.78,3.92,3.92,7.86.16,4.32.62,3.86-.51,11,0,0-1.71,5.53-2.38,8s-1.93,6.31-.91,10.31c.39,1.54,1.43,3,3,7.31a62.59,62.59,0,0,1,3.21,10.82s-8.63,8-26.56,5.42C381.59,274.33,379,270,379,270l2.47-15.39C381.14,249.2,381.05,247.25,380.8,243.85Z" style="fill:#30566D"></path><path d="M389,242.49s5.17,4.16,11.19,2.14a10.23,10.23,0,0,0,7-7.23s.51,6.85-7.07,9A9.89,9.89,0,0,1,389,242.49Z" style="opacity:0.1"></path><path d="M434.15,202.06c-2.68-3.34-10-11.69-11.35-13.36a7.74,7.74,0,0,0-3.16-2.38,8.11,8.11,0,0,1-2.94-1.87c-.52-.51-1.65-2.68-2.11-3.25a20.5,20.5,0,0,0-4.81-4.48c-2.12-1.49-4.13-2.18-6.31-3.59-1.28-.83-2.84-1.66-1.44-3.06a3.12,3.12,0,0,1,1.6-.87c3-.56,6.18.38,9.9,1.35a45.75,45.75,0,0,1,4.71,1.47,9.15,9.15,0,0,1,2.49,1.27,10.69,10.69,0,0,1,2.22,3c1.74,2.84,5.72,4.74,8.2,6.91,2.9,2.55,5.76,4.68,9.07,7.49a62.42,62.42,0,0,1,9,8.95c2,2.7,1.43,4.32.61,5.52-4.13,6.09-13.33,13-16.6,15.7-3.49,2.88-5.94,4.68-9.06,7.47a78,78,0,0,0-6.2,6.59,1.37,1.37,0,0,1-1.7.39c-3.61-2-6-12-3.22-18.21.71-1.59,1.45-1.65,1.45-1.65,5.7-4,19.65-13.35,19.65-13.35" style="fill:#ffa8a7"></path><path d="M434.15,202.06a14.24,14.24,0,0,0,6.51,4.65s-3.45.82-8.08-3.49Z" style="fill:#f28f8f"></path><path d="M382.73,195.55c.06,9.93,3.23,12.44,4.83,13.17s4.73.36,7.76-.09l-.1,6s-3.56,3.59-3.34,6.32,5.43,3.14,9.39.54a30.11,30.11,0,0,0,5.89-5.13,2.14,2.14,0,0,0,.52-1.37l.24-14s1.63,1.79,4.6-.17a5.4,5.4,0,0,0,1.52-7.83,4,4,0,0,0-6.08.62c-.91,1.7-.83,2.89-2,2.69s-1.28-1.53-1.36-2.49-.05-1.26-.12-2.51c-2.94-.63-6-4.72-6.31-7.7a14,14,0,0,1-6.39,1.44c-3.28-.23-5-.88-6.59-3.26a6.64,6.64,0,0,0-.92,1.77,21.87,21.87,0,0,0-1,3.89A51.76,51.76,0,0,0,382.73,195.55Z" style="fill:#ffa8a7"></path><path d="M395.32,208.63c3.2-.36,9.8-2.13,10.87-4.71a6.74,6.74,0,0,1-2.36,3.27c-2,1.65-8.54,3.43-8.54,3.43Z" style="fill:#f28f8f"></path><path d="M392.1,203.28a1.31,1.31,0,1,0,1.33-1.28A1.31,1.31,0,0,0,392.1,203.28Z" style="fill:#b16668"></path><path d="M393.77,193.51a1.37,1.37,0,1,0,1.47-1.33A1.4,1.4,0,0,0,393.77,193.51Z" style="fill:#263238"></path><path d="M384.5,192.92a1.26,1.26,0,0,0,1.16,1.37,1.2,1.2,0,0,0,1.33-1.21,1.25,1.25,0,1,0-2.49-.16Z" style="fill:#263238"></path><polygon points="390.91 191.63 389.92 199.92 385.67 198.16 390.91 191.63" style="fill:#f28f8f"></polygon><path d="M398.74,189.93l-2.47-2.35a1.78,1.78,0,0,0,.07,2.47A1.67,1.67,0,0,0,398.74,189.93Z" style="fill:#263238"></path><path d="M386.38,186.82l-2.74,2.07a1.66,1.66,0,0,0,2.37.39A1.81,1.81,0,0,0,386.38,186.82Z" style="fill:#263238"></path></g></g></svg>